<svg width="32" height="32" viewBox="0 0 32 32" fill="none" xmlns="http://www.w3.org/2000/svg">
<g clip-path="url(#clip0_19505_11829)">
<path d="M15.9998 17.2452C15.8004 17.2456 15.6061 17.1837 15.4456 17.0686L7.87709 11.6347C7.77862 11.5639 7.69544 11.475 7.63232 11.373C7.56919 11.2709 7.52736 11.1578 7.50919 11.0401C7.47251 10.8023 7.53448 10.5601 7.68147 10.3667C7.82847 10.1734 8.04845 10.0447 8.29301 10.0091C8.53758 9.97339 8.78671 10.0336 8.98558 10.1766L15.9998 15.2075L23.0141 10.1766C23.1125 10.1058 23.2244 10.0546 23.3432 10.0258C23.4621 9.9971 23.5855 9.9914 23.7066 10.0091C23.8277 10.0267 23.9441 10.0674 24.049 10.1288C24.1539 10.1901 24.2454 10.271 24.3182 10.3667C24.391 10.4625 24.4436 10.5712 24.4732 10.6868C24.5028 10.8023 24.5086 10.9224 24.4905 11.0401C24.4723 11.1578 24.4305 11.2709 24.3673 11.373C24.3042 11.475 24.221 11.5639 24.1226 11.6347L16.5541 17.0686C16.3935 17.1837 16.1993 17.2456 15.9998 17.2452Z" fill="#7AE229"/>
<path d="M16 22.0001C15.8006 22.0005 15.6063 21.9386 15.4458 21.8235L7.87726 16.3896C7.67838 16.2466 7.54604 16.0328 7.50936 15.795C7.47267 15.5572 7.53465 15.315 7.68164 15.1216C7.82864 14.9283 8.04861 14.7996 8.29318 14.7639C8.53775 14.7283 8.78687 14.7885 8.98575 14.9314L16 19.9624L23.0142 14.9314C23.2131 14.7885 23.4622 14.7283 23.7068 14.7639C23.9514 14.7996 24.1714 14.9283 24.3184 15.1216C24.4653 15.315 24.5273 15.5572 24.4906 15.795C24.454 16.0328 24.3216 16.2466 24.1227 16.3896L16.5542 21.8235C16.3937 21.9386 16.1994 22.0005 16 22.0001Z" fill="#7AE229"/>
</g>
<defs>
<clipPath id="clip0_19505_11829">
<rect width="17" height="12" fill="white" transform="translate(7.5 10)"/>
</clipPath>
</defs>
</svg>
