<svg width="32" height="32" viewBox="0 0 32 32" fill="none" xmlns="http://www.w3.org/2000/svg">
<g clip-path="url(#clip0_19505_11828)">
<path d="M16.0002 14.7548C16.1996 14.7544 16.3939 14.8163 16.5544 14.9314L24.1229 20.3653C24.2214 20.4361 24.3046 20.525 24.3677 20.627C24.4308 20.7291 24.4726 20.8422 24.4908 20.9599C24.5275 21.1977 24.4655 21.4399 24.3185 21.6333C24.1715 21.8266 23.9516 21.9553 23.707 21.9909C23.4624 22.0266 23.2133 21.9664 23.0144 21.8234L16.0002 16.7925L8.98592 21.8234C8.88745 21.8942 8.77561 21.9454 8.65677 21.9742C8.53794 22.0029 8.41445 22.0086 8.29336 21.9909C8.17226 21.9733 8.05592 21.9326 7.951 21.8712C7.84607 21.8099 7.7546 21.729 7.68181 21.6333C7.60903 21.5375 7.55635 21.4288 7.52679 21.3132C7.49723 21.1977 7.49137 21.0776 7.50953 20.9599C7.5277 20.8422 7.56953 20.7291 7.63266 20.627C7.69578 20.525 7.77896 20.4361 7.87743 20.3653L15.4459 14.9314C15.6065 14.8163 15.8007 14.7544 16.0002 14.7548Z" fill="#FF3D00"/>
<path d="M16 9.99988C16.1994 9.99954 16.3937 10.0614 16.5542 10.1765L24.1227 15.6104C24.3216 15.7534 24.454 15.9672 24.4906 16.205C24.5273 16.4428 24.4654 16.685 24.3184 16.8784C24.1714 17.0717 23.9514 17.2004 23.7068 17.2361C23.4622 17.2717 23.2131 17.2115 23.0142 17.0686L16 12.0376L8.98576 17.0686C8.78688 17.2115 8.53775 17.2717 8.29319 17.2361C8.04862 17.2004 7.82864 17.0717 7.68165 16.8784C7.53465 16.685 7.47268 16.4428 7.50936 16.205C7.54605 15.9672 7.67839 15.7534 7.87726 15.6104L15.4458 10.1765C15.6063 10.0614 15.8006 9.99954 16 9.99988Z" fill="#FF3D00"/>
</g>
<defs>
<clipPath id="clip0_19505_11828">
<rect width="17" height="12" fill="white" transform="translate(24.5 22) rotate(-180)"/>
</clipPath>
</defs>
</svg>
