<svg width="25" height="25" viewBox="0 0 25 25" fill="none" xmlns="http://www.w3.org/2000/svg">
<mask id="mask0_68288_561" style="mask-type:alpha" maskUnits="userSpaceOnUse" x="0" y="0" width="25" height="25">
<rect x="0.654297" y="0.5" width="24" height="24" fill="#D9D9D9"/>
</mask>
<g mask="url(#mask0_68288_561)">
<path d="M6.6543 22.5C6.1043 22.5 5.63346 22.3042 5.2418 21.9125C4.85013 21.5208 4.6543 21.05 4.6543 20.5V10.5C4.6543 9.95 4.85013 9.47917 5.2418 9.0875C5.63346 8.69583 6.1043 8.5 6.6543 8.5H7.6543V6.5C7.6543 5.11667 8.1418 3.9375 9.1168 2.9625C10.0918 1.9875 11.271 1.5 12.6543 1.5C14.0376 1.5 15.2168 1.9875 16.1918 2.9625C17.1668 3.9375 17.6543 5.11667 17.6543 6.5V8.5H18.6543C19.2043 8.5 19.6751 8.69583 20.0668 9.0875C20.4585 9.47917 20.6543 9.95 20.6543 10.5V20.5C20.6543 21.05 20.4585 21.5208 20.0668 21.9125C19.6751 22.3042 19.2043 22.5 18.6543 22.5H6.6543ZM6.6543 20.5H18.6543V10.5H6.6543V20.5ZM12.6543 17.5C13.2043 17.5 13.6751 17.3042 14.0668 16.9125C14.4585 16.5208 14.6543 16.05 14.6543 15.5C14.6543 14.95 14.4585 14.4792 14.0668 14.0875C13.6751 13.6958 13.2043 13.5 12.6543 13.5C12.1043 13.5 11.6335 13.6958 11.2418 14.0875C10.8501 14.4792 10.6543 14.95 10.6543 15.5C10.6543 16.05 10.8501 16.5208 11.2418 16.9125C11.6335 17.3042 12.1043 17.5 12.6543 17.5ZM9.6543 8.5H15.6543V6.5C15.6543 5.66667 15.3626 4.95833 14.7793 4.375C14.196 3.79167 13.4876 3.5 12.6543 3.5C11.821 3.5 11.1126 3.79167 10.5293 4.375C9.94596 4.95833 9.6543 5.66667 9.6543 6.5V8.5Z" fill="#A8A8A8"/>
</g>
</svg>
