<svg width="25" height="25" viewBox="0 0 25 25" fill="none" xmlns="http://www.w3.org/2000/svg">
<mask id="mask0_68288_555" style="mask-type:alpha" maskUnits="userSpaceOnUse" x="0" y="0" width="25" height="25">
<rect x="0.654297" y="0.5" width="24" height="24" fill="#D9D9D9"/>
</mask>
<g mask="url(#mask0_68288_555)">
<path d="M4.6543 20.5C4.1043 20.5 3.63346 20.3042 3.2418 19.9125C2.85013 19.5208 2.6543 19.05 2.6543 18.5V6.5C2.6543 5.95 2.85013 5.47917 3.2418 5.0875C3.63346 4.69583 4.1043 4.5 4.6543 4.5H20.6543C21.2043 4.5 21.6751 4.69583 22.0668 5.0875C22.4585 5.47917 22.6543 5.95 22.6543 6.5V18.5C22.6543 19.05 22.4585 19.5208 22.0668 19.9125C21.6751 20.3042 21.2043 20.5 20.6543 20.5H4.6543ZM20.6543 8.5L13.1793 13.175C13.096 13.225 13.0085 13.2625 12.9168 13.2875C12.8251 13.3125 12.7376 13.325 12.6543 13.325C12.571 13.325 12.4835 13.3125 12.3918 13.2875C12.3001 13.2625 12.2126 13.225 12.1293 13.175L4.6543 8.5V18.5H20.6543V8.5ZM12.6543 11.5L20.6543 6.5H4.6543L12.6543 11.5ZM4.6543 8.75V7.275V7.3V7.2875V8.75Z" fill="#A8A8A8"/>
</g>
</svg>
