<svg width="25" height="24" viewBox="0 0 25 24" fill="none" xmlns="http://www.w3.org/2000/svg">
<mask id="mask0_68288_329" style="mask-type:alpha" maskUnits="userSpaceOnUse" x="0" y="0" width="25" height="24">
<rect x="0.499512" width="24" height="24" fill="#D9D9D9"/>
</mask>
<g mask="url(#mask0_68288_329)">
<path d="M13.7217 23C13.3754 23 13.0852 22.8829 12.8509 22.6486C12.6166 22.4144 12.4995 22.1241 12.4995 21.7778C12.4995 21.4315 12.6166 21.1412 12.8509 20.9069C13.0852 20.6727 13.3754 20.5556 13.7217 20.5556H21.0551V3.44444H13.7217C13.3754 3.44444 13.0852 3.32731 12.8509 3.09306C12.6166 2.8588 12.4995 2.56852 12.4995 2.22222C12.4995 1.87593 12.6166 1.58565 12.8509 1.35139C13.0852 1.11713 13.3754 1 13.7217 1H21.0551C21.7273 1 22.3028 1.23935 22.7815 1.71806C23.2602 2.19676 23.4995 2.77222 23.4995 3.44444V20.5556C23.4995 21.2278 23.2602 21.8032 22.7815 22.2819C22.3028 22.7606 21.7273 23 21.0551 23H13.7217ZM11.4912 13.2222H2.72173C2.37544 13.2222 2.08516 13.1051 1.8509 12.8708C1.61664 12.6366 1.49951 12.3463 1.49951 12C1.49951 11.6537 1.61664 11.3634 1.8509 11.1292C2.08516 10.8949 2.37544 10.7778 2.72173 10.7778H11.4912L9.19951 8.48611C8.97544 8.26204 8.8634 7.98704 8.8634 7.66111C8.8634 7.33519 8.97544 7.05 9.19951 6.80556C9.42359 6.56111 9.70877 6.4338 10.0551 6.42361C10.4014 6.41343 10.6967 6.53056 10.9412 6.775L15.3106 11.1444C15.5551 11.3889 15.6773 11.6741 15.6773 12C15.6773 12.3259 15.5551 12.6111 15.3106 12.8556L10.9412 17.225C10.6967 17.4694 10.4065 17.5866 10.0703 17.5764C9.73423 17.5662 9.44396 17.4389 9.19951 17.1944C8.97544 16.95 8.86849 16.6597 8.87868 16.3236C8.88886 15.9875 9.00599 15.7074 9.23007 15.4833L11.4912 13.2222Z" fill="#42526E"/>
</g>
</svg>
