<svg width="25" height="24" viewBox="0 0 25 24" fill="none" xmlns="http://www.w3.org/2000/svg">
<mask id="mask0_68288_3237" style="mask-type:alpha" maskUnits="userSpaceOnUse" x="0" y="0" width="25" height="24">
<rect x="0.654297" width="24" height="24" fill="#D9D9D9"/>
</mask>
<g mask="url(#mask0_68288_3237)">
<path d="M12.6543 12C11.5543 12 10.6126 11.6083 9.8293 10.825C9.04596 10.0417 8.6543 9.1 8.6543 8C8.6543 6.9 9.04596 5.95833 9.8293 5.175C10.6126 4.39167 11.5543 4 12.6543 4C13.7543 4 14.696 4.39167 15.4793 5.175C16.2626 5.95833 16.6543 6.9 16.6543 8C16.6543 9.1 16.2626 10.0417 15.4793 10.825C14.696 11.6083 13.7543 12 12.6543 12ZM18.6543 20H6.6543C6.1043 20 5.63346 19.8042 5.2418 19.4125C4.85013 19.0208 4.6543 18.55 4.6543 18V17.2C4.6543 16.6333 4.80013 16.1125 5.0918 15.6375C5.38346 15.1625 5.77096 14.8 6.2543 14.55C7.28763 14.0333 8.33763 13.6458 9.4043 13.3875C10.471 13.1292 11.5543 13 12.6543 13C13.7543 13 14.8376 13.1292 15.9043 13.3875C16.971 13.6458 18.021 14.0333 19.0543 14.55C19.5376 14.8 19.9251 15.1625 20.2168 15.6375C20.5085 16.1125 20.6543 16.6333 20.6543 17.2V18C20.6543 18.55 20.4585 19.0208 20.0668 19.4125C19.6751 19.8042 19.2043 20 18.6543 20ZM6.6543 18H18.6543V17.2C18.6543 17.0167 18.6085 16.85 18.5168 16.7C18.4251 16.55 18.3043 16.4333 18.1543 16.35C17.2543 15.9 16.346 15.5625 15.4293 15.3375C14.5126 15.1125 13.5876 15 12.6543 15C11.721 15 10.796 15.1125 9.8793 15.3375C8.96263 15.5625 8.0543 15.9 7.1543 16.35C7.0043 16.4333 6.88346 16.55 6.7918 16.7C6.70013 16.85 6.6543 17.0167 6.6543 17.2V18ZM12.6543 10C13.2043 10 13.6751 9.80417 14.0668 9.4125C14.4585 9.02083 14.6543 8.55 14.6543 8C14.6543 7.45 14.4585 6.97917 14.0668 6.5875C13.6751 6.19583 13.2043 6 12.6543 6C12.1043 6 11.6335 6.19583 11.2418 6.5875C10.8501 6.97917 10.6543 7.45 10.6543 8C10.6543 8.55 10.8501 9.02083 11.2418 9.4125C11.6335 9.80417 12.1043 10 12.6543 10Z" fill="#A8A8A8"/>
</g>
</svg>
