<svg width="24" height="24" viewBox="0 0 24 24" fill="none" xmlns="http://www.w3.org/2000/svg">
<mask id="mask0_18153_5433" style="mask-type:alpha" maskUnits="userSpaceOnUse" x="-1" y="0" width="25" height="24">
<rect x="-0.000488281" width="24" height="24" fill="#D9D9D9"/>
</mask>
<g mask="url(#mask0_18153_5433)">
<path d="M2.34056 24.0151C1.69664 24.0151 1.1454 23.7858 0.686849 23.3273C0.228299 22.8687 -0.000976562 22.3175 -0.000976562 21.6736V5.28283C-0.000976562 4.63891 0.228299 4.08767 0.686849 3.62912C1.1454 3.17057 1.69664 2.9413 2.34056 2.9413H12.7897L10.4481 5.28283H2.34056V21.6736H18.7313V13.5367L21.0728 11.1952V21.6736C21.0728 22.3175 20.8436 22.8687 20.385 23.3273C19.9265 23.7858 19.3752 24.0151 18.7313 24.0151H2.34056ZM15.4239 3.61449L17.0922 5.25356L9.36516 12.9806V14.649H11.0042L18.7606 6.89264L20.4289 8.53171L12.6726 16.288C12.4579 16.5027 12.2092 16.6734 11.9262 16.8003C11.6433 16.9271 11.3457 16.9905 11.0335 16.9905H8.1944C7.86268 16.9905 7.58462 16.8783 7.36022 16.6539C7.13583 16.4295 7.02363 16.1515 7.02363 15.8197V12.9806C7.02363 12.6684 7.08217 12.3709 7.19924 12.0879C7.31632 11.805 7.48218 11.5562 7.69682 11.3416L15.4239 3.61449ZM20.4289 8.53171L15.4239 3.61449L18.3508 0.687568C18.8191 0.219261 19.3801 -0.0148926 20.0338 -0.0148926C20.6875 -0.0148926 21.2387 0.219261 21.6875 0.687568L23.3266 2.35591C23.7754 2.80471 23.9998 3.35106 23.9998 3.99499C23.9998 4.63891 23.7754 5.18527 23.3266 5.63406L20.4289 8.53171Z" fill="#42526E"/>
</g>
</svg>
