<svg width="24" height="24" viewBox="0 0 24 24" fill="none" xmlns="http://www.w3.org/2000/svg">
<mask id="mask0_72751_1565" style="mask-type:alpha" maskUnits="userSpaceOnUse" x="0" y="0" width="24" height="24">
<rect width="24" height="24" fill="#D9D9D9"/>
</mask>
<g mask="url(#mask0_72751_1565)">
<path d="M2.34105 24.0151C1.69712 24.0151 1.14589 23.7858 0.687338 23.3273C0.228787 22.8687 -0.000488281 22.3175 -0.000488281 21.6736V5.28283C-0.000488281 4.63891 0.228787 4.08767 0.687338 3.62912C1.14589 3.17057 1.69712 2.9413 2.34105 2.9413H12.7901L10.4486 5.28283H2.34105V21.6736H18.7318V13.5367L21.0733 11.1952V21.6736C21.0733 22.3175 20.844 22.8687 20.3855 23.3273C19.9269 23.7858 19.3757 24.0151 18.7318 24.0151H2.34105ZM15.4244 3.61449L17.0927 5.25356L9.36565 12.9806V14.649H11.0047L18.7611 6.89264L20.4294 8.53171L12.6731 16.288C12.4584 16.5027 12.2096 16.6734 11.9267 16.8003C11.6438 16.9271 11.3462 16.9905 11.034 16.9905H8.19488C7.86317 16.9905 7.58511 16.8783 7.36071 16.6539C7.13631 16.4295 7.02412 16.1515 7.02412 15.8197V12.9806C7.02412 12.6684 7.08265 12.3709 7.19973 12.0879C7.31681 11.805 7.48267 11.5562 7.69731 11.3416L15.4244 3.61449ZM20.4294 8.53171L15.4244 3.61449L18.3513 0.687568C18.8196 0.219261 19.3806 -0.0148926 20.0343 -0.0148926C20.6879 -0.0148926 21.2392 0.219261 21.688 0.687568L23.3271 2.35591C23.7758 2.80471 24.0002 3.35106 24.0002 3.99499C24.0002 4.63891 23.7758 5.18527 23.3271 5.63406L20.4294 8.53171Z" fill="#4589FF"/>
</g>
</svg>
