<svg width="24" height="24" viewBox="0 0 24 24" fill="none" xmlns="http://www.w3.org/2000/svg">
<path d="M18.4615 3.69232L18.4615 20.3077C18.461 20.7972 18.2664 21.2665 17.9203 21.6126C17.5742 21.9587 17.1049 22.1534 16.6154 22.1539L12.9231 22.1539C12.4336 22.1534 11.9643 21.9587 11.6182 21.6126C11.2721 21.2665 11.0774 20.7972 11.0769 20.3077L11.0769 3.69232C11.0774 3.20284 11.2721 2.73354 11.6182 2.38743C11.9643 2.04131 12.4336 1.84665 12.9231 1.84616L16.6154 1.84616C17.1049 1.84665 17.5742 2.04131 17.9203 2.38743C18.2664 2.73354 18.461 3.20284 18.4615 3.69232ZM12.9231 20.3077L16.6154 20.3077L16.6154 3.69232L12.9231 3.69232L12.9231 20.3077ZM12.9231 3.69232L12.9231 20.3077C12.9226 20.7972 12.7279 21.2665 12.3818 21.6126C12.0357 21.9587 11.5664 22.1533 11.0769 22.1538L7.38462 22.1538C6.89513 22.1533 6.42584 21.9587 6.07973 21.6126C5.73361 21.2665 5.53895 20.7972 5.53846 20.3077L5.53846 3.6923C5.53895 3.20282 5.73361 2.73353 6.07973 2.38741C6.42584 2.0413 6.89513 1.84663 7.38461 1.84615L11.0769 1.84615C11.5664 1.84663 12.0357 2.0413 12.3818 2.38741C12.7279 2.73353 12.9226 3.20284 12.9231 3.69232ZM7.38462 20.3077L11.0769 20.3077L11.0769 3.69232L7.38461 3.6923L7.38462 20.3077ZM7.38461 3.6923L7.38462 20.3077C7.38413 20.7972 7.18946 21.2665 6.84335 21.6126C6.49723 21.9587 6.02794 22.1533 5.53846 22.1538L1.84615 22.1538C1.35667 22.1533 0.887381 21.9587 0.541266 21.6126C0.195151 21.2665 0.000488688 20.7972 -8.07075e-08 20.3077L-8.06989e-07 3.6923C0.000487919 3.20282 0.19515 2.73353 0.541265 2.38741C0.88738 2.0413 1.35667 1.84663 1.84615 1.84615L5.53846 1.84615C6.02794 1.84663 6.49723 2.0413 6.84335 2.38741C7.18946 2.73353 7.38413 3.20282 7.38461 3.6923ZM1.84615 20.3077L5.53846 20.3077L5.53846 3.6923L1.84615 3.6923L1.84615 20.3077Z" fill="#42526E"/>
<path d="M24 3.69252L24 20.3079C23.9995 20.7974 23.8048 21.2667 23.4587 21.6128C23.1126 21.9589 22.6433 22.1536 22.1538 22.1541L18.4615 22.1541C17.9721 22.1536 17.5028 21.9589 17.1567 21.6128C16.8105 21.2667 16.6159 20.7972 16.6154 20.3077L16.6154 3.69232C16.6159 3.20284 16.8105 2.73375 17.1567 2.38763C17.5028 2.04152 17.9721 1.84686 18.4615 1.84637L22.1538 1.84637C22.6433 1.84686 23.1126 2.04152 23.4587 2.38763C23.8048 2.73375 23.9995 3.20304 24 3.69252ZM18.4615 20.3077L22.1538 20.3079L22.1538 3.69252L18.4615 3.69232L18.4615 20.3077Z" fill="#42526E"/>
</svg>
