<svg width="21" height="16" viewBox="0 0 21 16" fill="none" xmlns="http://www.w3.org/2000/svg">
<path d="M19.2255 15.2547C18.9909 15.2551 18.7624 15.1803 18.5735 15.0412L10.3214 8.958L2.06938 15.0412C1.95353 15.1267 1.82195 15.1887 1.68215 15.2234C1.54234 15.2582 1.39706 15.2651 1.25459 15.2437C1.11213 15.2223 0.975262 15.1732 0.851817 15.099C0.728372 15.0247 0.620763 14.927 0.535134 14.8112C0.449505 14.6954 0.387533 14.5639 0.352756 14.4243C0.31798 14.2846 0.311079 14.1394 0.332449 13.997C0.375609 13.7095 0.531299 13.4509 0.765271 13.2781L9.66938 6.70761C9.85808 6.56802 10.0867 6.49268 10.3214 6.49268C10.5562 6.49268 10.7848 6.56802 10.9735 6.70761L19.8776 13.2781C20.0635 13.415 20.2014 13.6071 20.2715 13.827C20.3417 14.0469 20.3405 14.2833 20.2682 14.5025C20.1959 14.7216 20.0562 14.9124 19.8689 15.0475C19.6817 15.1826 19.4565 15.2551 19.2255 15.2547Z" fill="#FF3D00"/>
<path d="M19.2255 9.50568C18.9909 9.50609 18.7624 9.43124 18.5735 9.29214L10.3214 3.20898L2.06939 9.29214C1.83541 9.46495 1.54233 9.5378 1.2546 9.49468C0.966872 9.45155 0.708074 9.29597 0.535138 9.06218C0.362203 8.82838 0.289295 8.53551 0.332454 8.24799C0.375613 7.96048 0.531304 7.70187 0.765275 7.52906L9.66938 0.958588C9.85808 0.818997 10.0867 0.743652 10.3214 0.743652C10.5562 0.743652 10.7848 0.818997 10.9735 0.958588L19.8776 7.52906C20.0635 7.66598 20.2014 7.85809 20.2716 8.07797C20.3417 8.29785 20.3405 8.53426 20.2682 8.75344C20.1959 8.97262 20.0562 9.16338 19.8689 9.29847C19.6817 9.43356 19.4565 9.50608 19.2255 9.50568Z" fill="#FF3D00"/>
</svg>
