<svg width="17" height="12" viewBox="0 0 17 12" fill="none" xmlns="http://www.w3.org/2000/svg">
<path d="M6.20402 9.15L14.679 0.675C14.879 0.475 15.1165 0.375 15.3915 0.375C15.6665 0.375 15.904 0.475 16.104 0.675C16.304 0.875 16.404 1.1125 16.404 1.3875C16.404 1.6625 16.304 1.9 16.104 2.1L6.90402 11.3C6.70402 11.5 6.47068 11.6 6.20402 11.6C5.93735 11.6 5.70402 11.5 5.50402 11.3L1.20402 7C1.00402 6.8 0.908182 6.5625 0.916516 6.2875C0.924849 6.0125 1.02902 5.775 1.22902 5.575C1.42902 5.375 1.66652 5.275 1.94152 5.275C2.21652 5.275 2.45402 5.375 2.65402 5.575L6.20402 9.15Z" fill="white"/>
</svg>
