<svg width="24" height="24" viewBox="0 0 24 24" fill="none" xmlns="http://www.w3.org/2000/svg">
<mask id="mask0_55413_8672" style="mask-type:alpha" maskUnits="userSpaceOnUse" x="0" y="0" width="24" height="24">
<rect width="24" height="24" fill="#D9D9D9"/>
</mask>
<g mask="url(#mask0_55413_8672)">
<path d="M13.2222 23C12.8759 23 12.5856 22.8829 12.3514 22.6486C12.1171 22.4144 12 22.1241 12 21.7778C12 21.4315 12.1171 21.1412 12.3514 20.9069C12.5856 20.6727 12.8759 20.5556 13.2222 20.5556H20.5556V3.44444H13.2222C12.8759 3.44444 12.5856 3.32731 12.3514 3.09306C12.1171 2.8588 12 2.56852 12 2.22222C12 1.87593 12.1171 1.58565 12.3514 1.35139C12.5856 1.11713 12.8759 1 13.2222 1H20.5556C21.2278 1 21.8032 1.23935 22.2819 1.71806C22.7606 2.19676 23 2.77222 23 3.44444V20.5556C23 21.2278 22.7606 21.8032 22.2819 22.2819C21.8032 22.7606 21.2278 23 20.5556 23H13.2222ZM10.9917 13.2222H2.22222C1.87593 13.2222 1.58565 13.1051 1.35139 12.8708C1.11713 12.6366 1 12.3463 1 12C1 11.6537 1.11713 11.3634 1.35139 11.1292C1.58565 10.8949 1.87593 10.7778 2.22222 10.7778H10.9917L8.7 8.48611C8.47593 8.26204 8.36389 7.98704 8.36389 7.66111C8.36389 7.33519 8.47593 7.05 8.7 6.80556C8.92407 6.56111 9.20926 6.4338 9.55556 6.42361C9.90185 6.41343 10.1972 6.53056 10.4417 6.775L14.8111 11.1444C15.0556 11.3889 15.1778 11.6741 15.1778 12C15.1778 12.3259 15.0556 12.6111 14.8111 12.8556L10.4417 17.225C10.1972 17.4694 9.90694 17.5866 9.57083 17.5764C9.23472 17.5662 8.94444 17.4389 8.7 17.1944C8.47593 16.95 8.36898 16.6597 8.37917 16.3236C8.38935 15.9875 8.50648 15.7074 8.73056 15.4833L10.9917 13.2222Z" fill="#42526E"/>
</g>
</svg>
