<svg width="21" height="16" viewBox="0 0 21 16" fill="none" xmlns="http://www.w3.org/2000/svg">
<path d="M10.4883 9.50589C10.2537 9.5063 10.0252 9.43145 9.8363 9.29238L0.933194 2.72264C0.817356 2.63708 0.719516 2.52957 0.645261 2.40623C0.571006 2.28289 0.521789 2.14614 0.500421 2.00379C0.457267 1.71631 0.530167 1.42347 0.703083 1.1897C0.875999 0.955928 1.13477 0.800371 1.42246 0.757248C1.71016 0.714126 2.00321 0.786972 2.23716 0.95976L10.4883 7.04224L18.7394 0.95976C18.8552 0.874204 18.9868 0.812285 19.1266 0.777538C19.2664 0.742791 19.4116 0.735896 19.5541 0.757248C19.6966 0.7786 19.8334 0.82778 19.9568 0.901981C20.0803 0.976181 20.1879 1.07395 20.2735 1.1897C20.3591 1.30545 20.4211 1.43692 20.4558 1.57661C20.4906 1.71629 20.4975 1.86145 20.4761 2.00379C20.4548 2.14614 20.4056 2.28289 20.3313 2.40623C20.257 2.52957 20.1592 2.63708 20.0434 2.72264L11.1403 9.29238C10.9514 9.43145 10.7229 9.5063 10.4883 9.50589Z" fill="#7AE229"/>
<path d="M10.4883 15.2544C10.2537 15.2548 10.0252 15.18 9.8363 15.0409L0.933194 8.47117C0.699249 8.29839 0.543576 8.03981 0.500421 7.75233C0.457267 7.46485 0.530167 7.17201 0.703083 6.93824C0.875999 6.70446 1.13477 6.54891 1.42246 6.50578C1.71016 6.46266 2.00321 6.53551 2.23716 6.7083L10.4883 12.7908L18.7394 6.7083C18.9734 6.53551 19.2664 6.46266 19.5541 6.50578C19.8418 6.54891 20.1006 6.70446 20.2735 6.93824C20.4464 7.17201 20.5193 7.46485 20.4761 7.75233C20.433 8.03981 20.2773 8.29839 20.0434 8.47117L11.1403 15.0409C10.9514 15.18 10.7229 15.2548 10.4883 15.2544Z" fill="#7AE229"/>
</svg>
