<svg width="21" height="8" viewBox="0 0 21 8" fill="none" xmlns="http://www.w3.org/2000/svg">
<g clip-path="url(#clip0_69593_1357)">
<path d="M19.5584 7.72528H1.75019C1.45954 7.72528 1.1808 7.60898 0.975276 7.40197C0.769756 7.19495 0.654297 6.91419 0.654297 6.62143C0.654297 6.32867 0.769756 6.0479 0.975276 5.84089C1.1808 5.63388 1.45954 5.51758 1.75019 5.51758H19.5584C19.8491 5.51758 20.1278 5.63388 20.3333 5.84089C20.5388 6.0479 20.6543 6.32867 20.6543 6.62143C20.6543 6.91419 20.5388 7.19495 20.3333 7.40197C20.1278 7.60898 19.8491 7.72528 19.5584 7.72528Z" fill="white"/>
<path d="M19.5584 2.48211H1.75019C1.45954 2.48211 1.1808 2.36581 0.975276 2.1588C0.769756 1.95179 0.654297 1.67102 0.654297 1.37826C0.654297 1.0855 0.769756 0.804736 0.975276 0.597724C1.1808 0.390712 1.45954 0.274414 1.75019 0.274414L19.5584 0.274414C19.8491 0.274414 20.1278 0.390712 20.3333 0.597724C20.5388 0.804736 20.6543 1.0855 20.6543 1.37826C20.6543 1.67102 20.5388 1.95179 20.3333 2.1588C20.1278 2.36581 19.8491 2.48211 19.5584 2.48211Z" fill="white"/>
</g>
<defs>
<clipPath id="clip0_69593_1357">
<rect width="20" height="7.45098" fill="white" transform="translate(0.654297 0.274414)"/>
</clipPath>
</defs>
</svg>
