<svg width="18" height="18" viewBox="0 0 18 18" fill="none" xmlns="http://www.w3.org/2000/svg">
<path d="M8.76667 10.6194L2.23333 17.1441C1.98889 17.3882 1.67778 17.5103 1.3 17.5103C0.922222 17.5103 0.611111 17.3882 0.366667 17.1441C0.122222 16.9 0 16.5893 0 16.212C0 15.8347 0.122222 15.524 0.366667 15.2799L6.9 8.75515L0.366667 2.2304C0.122222 1.98628 0 1.67557 0 1.29829C0 0.92101 0.122222 0.610308 0.366667 0.366185C0.611111 0.122062 0.922222 0 1.3 0C1.67778 0 1.98889 0.122062 2.23333 0.366185L8.76667 6.89093L15.3 0.366185C15.5444 0.122062 15.8556 0 16.2333 0C16.6111 0 16.9222 0.122062 17.1667 0.366185C17.4111 0.610308 17.5333 0.92101 17.5333 1.29829C17.5333 1.67557 17.4111 1.98628 17.1667 2.2304L10.6333 8.75515L17.1667 15.2799C17.4111 15.524 17.5333 15.8347 17.5333 16.212C17.5333 16.5893 17.4111 16.9 17.1667 17.1441C16.9222 17.3882 16.6111 17.5103 16.2333 17.5103C15.8556 17.5103 15.5444 17.3882 15.3 17.1441L8.76667 10.6194Z" fill="#4589FF"/>
</svg>
