<svg width="18" height="18" viewBox="0 0 18 18" fill="none" xmlns="http://www.w3.org/2000/svg">
<path d="M8.99909 10.8645L2.46576 17.3892C2.22131 17.6333 1.9102 17.7554 1.53242 17.7554C1.15464 17.7554 0.843533 17.6333 0.599089 17.3892C0.354644 17.1451 0.232422 16.8344 0.232422 16.4571C0.232422 16.0798 0.354644 15.7691 0.599089 15.525L7.13242 9.00026L0.599089 2.47552C0.354644 2.23139 0.232422 1.92069 0.232422 1.54341C0.232422 1.16613 0.354644 0.855425 0.599089 0.611302C0.843533 0.367179 1.15464 0.245117 1.53242 0.245117C1.9102 0.245117 2.22131 0.367179 2.46576 0.611302L8.99909 7.13605L15.5324 0.611302C15.7769 0.367179 16.088 0.245117 16.4658 0.245117C16.8435 0.245117 17.1546 0.367179 17.3991 0.611302C17.6435 0.855425 17.7658 1.16613 17.7658 1.54341C17.7658 1.92069 17.6435 2.23139 17.3991 2.47552L10.8658 9.00026L17.3991 15.525C17.6435 15.7691 17.7658 16.0798 17.7658 16.4571C17.7658 16.8344 17.6435 17.1451 17.3991 17.3892C17.1546 17.6333 16.8435 17.7554 16.4658 17.7554C16.088 17.7554 15.7769 17.6333 15.5324 17.3892L8.99909 10.8645Z" fill="white"/>
</svg>
