<svg width="24" height="24" viewBox="0 0 24 24" fill="none" xmlns="http://www.w3.org/2000/svg">
<mask id="mask0_18355_11346" style="mask-type:alpha" maskUnits="userSpaceOnUse" x="-1" y="0" width="25" height="24">
<rect x="-0.000488281" width="24" height="24" fill="#D9D9D9"/>
</mask>
<g mask="url(#mask0_18355_11346)">
<path d="M5.99951 22C5.44951 22 4.97868 21.8042 4.58701 21.4125C4.19535 21.0208 3.99951 20.55 3.99951 20V10C3.99951 9.45 4.19535 8.97917 4.58701 8.5875C4.97868 8.19583 5.44951 8 5.99951 8H6.99951V6C6.99951 4.61667 7.48701 3.4375 8.46201 2.4625C9.43701 1.4875 10.6162 1 11.9995 1C13.3828 1 14.562 1.4875 15.537 2.4625C16.512 3.4375 16.9995 4.61667 16.9995 6V8H17.9995C18.5495 8 19.0203 8.19583 19.412 8.5875C19.8037 8.97917 19.9995 9.45 19.9995 10V20C19.9995 20.55 19.8037 21.0208 19.412 21.4125C19.0203 21.8042 18.5495 22 17.9995 22H5.99951ZM5.99951 20H17.9995V10H5.99951V20ZM11.9995 17C12.5495 17 13.0203 16.8042 13.412 16.4125C13.8037 16.0208 13.9995 15.55 13.9995 15C13.9995 14.45 13.8037 13.9792 13.412 13.5875C13.0203 13.1958 12.5495 13 11.9995 13C11.4495 13 10.9787 13.1958 10.587 13.5875C10.1953 13.9792 9.99951 14.45 9.99951 15C9.99951 15.55 10.1953 16.0208 10.587 16.4125C10.9787 16.8042 11.4495 17 11.9995 17ZM8.99951 8H14.9995V6C14.9995 5.16667 14.7078 4.45833 14.1245 3.875C13.5412 3.29167 12.8328 3 11.9995 3C11.1662 3 10.4578 3.29167 9.87451 3.875C9.29118 4.45833 8.99951 5.16667 8.99951 6V8Z" fill="#A8A8A8"/>
</g>
</svg>
