<svg width="24" height="24" viewBox="0 0 24 24" fill="none" xmlns="http://www.w3.org/2000/svg">
<mask id="mask0_18355_11343" style="mask-type:alpha" maskUnits="userSpaceOnUse" x="-1" y="0" width="25" height="24">
<rect x="-0.000488281" width="24" height="24" fill="#D9D9D9"/>
</mask>
<g mask="url(#mask0_18355_11343)">
<path d="M3.99951 20C3.44951 20 2.97868 19.8042 2.58701 19.4125C2.19535 19.0208 1.99951 18.55 1.99951 18V6C1.99951 5.45 2.19535 4.97917 2.58701 4.5875C2.97868 4.19583 3.44951 4 3.99951 4H19.9995C20.5495 4 21.0203 4.19583 21.412 4.5875C21.8037 4.97917 21.9995 5.45 21.9995 6V18C21.9995 18.55 21.8037 19.0208 21.412 19.4125C21.0203 19.8042 20.5495 20 19.9995 20H3.99951ZM19.9995 8L12.5245 12.675C12.4412 12.725 12.3537 12.7625 12.262 12.7875C12.1703 12.8125 12.0828 12.825 11.9995 12.825C11.9162 12.825 11.8287 12.8125 11.737 12.7875C11.6453 12.7625 11.5578 12.725 11.4745 12.675L3.99951 8V18H19.9995V8ZM11.9995 11L19.9995 6H3.99951L11.9995 11ZM3.99951 8.25V6.775V6.8V6.7875V8.25Z" fill="#A8A8A8"/>
</g>
</svg>
