<svg width="7" height="22" viewBox="0 0 7 22" fill="none" xmlns="http://www.w3.org/2000/svg">
<path d="M3.65397 21.6666C2.92064 21.6666 2.29286 21.4055 1.77064 20.8833C1.24842 20.361 0.987305 19.7333 0.987305 18.9999C0.987305 18.2666 1.24842 17.6388 1.77064 17.1166C2.29286 16.5944 2.92064 16.3333 3.65397 16.3333C4.3873 16.3333 5.01508 16.5944 5.5373 17.1166C6.05953 17.6388 6.32064 18.2666 6.32064 18.9999C6.32064 19.7333 6.05953 20.361 5.5373 20.8833C5.01508 21.4055 4.3873 21.6666 3.65397 21.6666ZM3.65397 13.6666C2.92064 13.6666 2.29286 13.4055 1.77064 12.8833C1.24842 12.361 0.987305 11.7333 0.987305 10.9999C0.987305 10.2666 1.24842 9.63881 1.77064 9.11659C2.29286 8.59436 2.92064 8.33325 3.65397 8.33325C4.3873 8.33325 5.01508 8.59436 5.5373 9.11659C6.05953 9.63881 6.32064 10.2666 6.32064 10.9999C6.32064 11.7333 6.05953 12.361 5.5373 12.8833C5.01508 13.4055 4.3873 13.6666 3.65397 13.6666ZM3.65397 5.66659C2.92064 5.66659 2.29286 5.40547 1.77064 4.88325C1.24842 4.36103 0.987305 3.73325 0.987305 2.99992C0.987305 2.26659 1.24842 1.63881 1.77064 1.11659C2.29286 0.594363 2.92064 0.333252 3.65397 0.333252C4.3873 0.333252 5.01508 0.594363 5.5373 1.11659C6.05953 1.63881 6.32064 2.26659 6.32064 2.99992C6.32064 3.73325 6.05953 4.36103 5.5373 4.88325C5.01508 5.40547 4.3873 5.66659 3.65397 5.66659Z" fill="white"/>
</svg>
