<svg width="13" height="16" viewBox="0 0 13 16" fill="none" xmlns="http://www.w3.org/2000/svg">
<path d="M9.64583 13.1252L11.2083 11.5627C11.3611 11.4099 11.5521 11.3335 11.7812 11.3335C12.0104 11.3335 12.2083 11.4099 12.375 11.5627C12.5417 11.7293 12.625 11.9272 12.625 12.1564C12.625 12.3856 12.5417 12.5835 12.375 12.7502L9.39583 15.7293C9.3125 15.8127 9.22222 15.8717 9.125 15.9064C9.02778 15.9411 8.92361 15.9585 8.8125 15.9585C8.70139 15.9585 8.59722 15.9411 8.5 15.9064C8.40278 15.8717 8.3125 15.8127 8.22917 15.7293L5.22917 12.7293C5.0625 12.5627 4.98264 12.3682 4.98958 12.146C4.99653 11.9238 5.08333 11.7293 5.25 11.5627C5.41667 11.4099 5.61111 11.33 5.83333 11.3231C6.05556 11.3161 6.25 11.396 6.41667 11.5627L7.97917 13.1252L7.97917 7.97933C7.97917 7.74322 8.05903 7.5453 8.21875 7.38558C8.37847 7.22586 8.57639 7.146 8.8125 7.146C9.04861 7.146 9.24653 7.22586 9.40625 7.38558C9.56597 7.5453 9.64583 7.74322 9.64583 7.97933V13.1252ZM4.64583 2.8335V7.97933C4.64583 8.21544 4.56597 8.41336 4.40625 8.57308C4.24653 8.7328 4.04861 8.81266 3.8125 8.81266C3.57639 8.81266 3.37847 8.7328 3.21875 8.57308C3.05903 8.41336 2.97917 8.21544 2.97917 7.97933L2.97917 2.8335L1.41667 4.396C1.26389 4.54877 1.07292 4.62516 0.84375 4.62516C0.614583 4.62516 0.416667 4.54877 0.25 4.396C0.0833333 4.22933 0 4.03141 0 3.80225C0 3.57308 0.0833333 3.37516 0.25 3.2085L3.22917 0.22933C3.3125 0.145996 3.40278 0.0869694 3.5 0.052247C3.59722 0.0175247 3.70139 0.000163078 3.8125 0.000163078C3.92361 0.000163078 4.02778 0.0175247 4.125 0.052247C4.22222 0.0869694 4.3125 0.145996 4.39583 0.22933L7.39583 3.22933C7.5625 3.396 7.64236 3.59044 7.63542 3.81266C7.62847 4.03489 7.54167 4.22933 7.375 4.396C7.20833 4.54877 7.01389 4.62863 6.79167 4.63558C6.56944 4.64252 6.375 4.56266 6.20833 4.396L4.64583 2.8335Z" fill="#4589FF"/>
</svg>
