<svg width="28" height="30" viewBox="0 0 28 30" fill="none" xmlns="http://www.w3.org/2000/svg">
<g filter="url(#filter0_d_56589_9043)">
<rect x="1" y="27" width="26" height="24" rx="6" transform="rotate(-90 1 27)" fill="#F4F4F4" shape-rendering="crispEdges"/>
<mask id="mask0_56589_9043" style="mask-type:alpha" maskUnits="userSpaceOnUse" x="3" y="4" width="20" height="20">
<rect x="3" y="24" width="20" height="20" transform="rotate(-90 3 24)" fill="#D9D9D9"/>
</mask>
<g mask="url(#mask0_56589_9043)">
<path d="M16.3333 19.1457L17.8958 17.5832C18.0486 17.4304 18.2396 17.354 18.4688 17.354C18.6979 17.354 18.8958 17.4304 19.0625 17.5832C19.2292 17.7498 19.3125 17.9478 19.3125 18.1769C19.3125 18.4061 19.2292 18.604 19.0625 18.7707L16.0833 21.7498C16 21.8332 15.9097 21.8922 15.8125 21.9269C15.7153 21.9616 15.6111 21.979 15.5 21.979C15.3889 21.979 15.2847 21.9616 15.1875 21.9269C15.0903 21.8922 15 21.8332 14.9167 21.7498L11.9167 18.7498C11.75 18.5832 11.6701 18.3887 11.6771 18.1665C11.684 17.9443 11.7708 17.7498 11.9375 17.5832C12.1042 17.4304 12.2986 17.3505 12.5208 17.3436C12.7431 17.3366 12.9375 17.4165 13.1042 17.5832L14.6667 19.1457V13.9998C14.6667 13.7637 14.7465 13.5658 14.9062 13.4061C15.066 13.2464 15.2639 13.1665 15.5 13.1665C15.7361 13.1665 15.934 13.2464 16.0938 13.4061C16.2535 13.5658 16.3333 13.7637 16.3333 13.9998V19.1457ZM11.3333 8.854V13.9998C11.3333 14.2359 11.2535 14.4339 11.0938 14.5936C10.934 14.7533 10.7361 14.8332 10.5 14.8332C10.2639 14.8332 10.066 14.7533 9.90625 14.5936C9.74653 14.4339 9.66667 14.2359 9.66667 13.9998V8.854L8.10417 10.4165C7.95139 10.5693 7.76042 10.6457 7.53125 10.6457C7.30208 10.6457 7.10417 10.5693 6.9375 10.4165C6.77083 10.2498 6.6875 10.0519 6.6875 9.82275C6.6875 9.59359 6.77083 9.39567 6.9375 9.229L9.91667 6.24984C10 6.1665 10.0903 6.10748 10.1875 6.07275C10.2847 6.03803 10.3889 6.02067 10.5 6.02067C10.6111 6.02067 10.7153 6.03803 10.8125 6.07275C10.9097 6.10748 11 6.1665 11.0833 6.24984L14.0833 9.24984C14.25 9.4165 14.3299 9.61095 14.3229 9.83317C14.316 10.0554 14.2292 10.2498 14.0625 10.4165C13.8958 10.5693 13.7014 10.6491 13.4792 10.6561C13.2569 10.663 13.0625 10.5832 12.8958 10.4165L11.3333 8.854Z" fill="#4589FF"/>
</g>
</g>
<defs>
<filter id="filter0_d_56589_9043" x="0" y="0" width="28" height="30" filterUnits="userSpaceOnUse" color-interpolation-filters="sRGB">
<feFlood flood-opacity="0" result="BackgroundImageFix"/>
<feColorMatrix in="SourceAlpha" type="matrix" values="0 0 0 0 0 0 0 0 0 0 0 0 0 0 0 0 0 0 127 0" result="hardAlpha"/>
<feOffset dx="1" dy="1"/>
<feGaussianBlur stdDeviation="1"/>
<feComposite in2="hardAlpha" operator="out"/>
<feColorMatrix type="matrix" values="0 0 0 0 0 0 0 0 0 0 0 0 0 0 0 0 0 0 0.15 0"/>
<feBlend mode="normal" in2="BackgroundImageFix" result="effect1_dropShadow_56589_9043"/>
<feBlend mode="normal" in="SourceGraphic" in2="effect1_dropShadow_56589_9043" result="shape"/>
</filter>
</defs>
</svg>
