<svg width="24" height="24" viewBox="0 0 24 24" fill="none" xmlns="http://www.w3.org/2000/svg">
<mask id="mask0_18356_6414" style="mask-type:alpha" maskUnits="userSpaceOnUse" x="-1" y="0" width="25" height="24">
<rect x="-0.000488281" width="24" height="24" fill="#D9D9D9"/>
</mask>
<g mask="url(#mask0_18356_6414)">
<path d="M11.9993 16C13.2493 16 14.3118 15.5625 15.1868 14.6875C16.0618 13.8125 16.4993 12.75 16.4993 11.5C16.4993 10.25 16.0618 9.1875 15.1868 8.3125C14.3118 7.4375 13.2493 7 11.9993 7C10.7493 7 9.68682 7.4375 8.81182 8.3125C7.93682 9.1875 7.49932 10.25 7.49932 11.5C7.49932 12.75 7.93682 13.8125 8.81182 14.6875C9.68682 15.5625 10.7493 16 11.9993 16ZM11.9993 14.2C11.2493 14.2 10.6118 13.9375 10.0868 13.4125C9.56182 12.8875 9.29932 12.25 9.29932 11.5C9.29932 10.75 9.56182 10.1125 10.0868 9.5875C10.6118 9.0625 11.2493 8.8 11.9993 8.8C12.7493 8.8 13.3868 9.0625 13.9118 9.5875C14.4368 10.1125 14.6993 10.75 14.6993 11.5C14.6993 12.25 14.4368 12.8875 13.9118 13.4125C13.3868 13.9375 12.7493 14.2 11.9993 14.2ZM11.9993 19C9.68265 19 7.56598 18.3875 5.64932 17.1625C3.73265 15.9375 2.28265 14.2833 1.29932 12.2C1.24932 12.1167 1.21598 12.0125 1.19932 11.8875C1.18265 11.7625 1.17432 11.6333 1.17432 11.5C1.17432 11.3667 1.18265 11.2375 1.19932 11.1125C1.21598 10.9875 1.24932 10.8833 1.29932 10.8C2.28265 8.71667 3.73265 7.0625 5.64932 5.8375C7.56598 4.6125 9.68265 4 11.9993 4C14.316 4 16.4327 4.6125 18.3493 5.8375C20.266 7.0625 21.716 8.71667 22.6993 10.8C22.7493 10.8833 22.7826 10.9875 22.7993 11.1125C22.816 11.2375 22.8243 11.3667 22.8243 11.5C22.8243 11.6333 22.816 11.7625 22.7993 11.8875C22.7826 12.0125 22.7493 12.1167 22.6993 12.2C21.716 14.2833 20.266 15.9375 18.3493 17.1625C16.4327 18.3875 14.316 19 11.9993 19ZM11.9993 17C13.8826 17 15.6118 16.5042 17.1868 15.5125C18.7618 14.5208 19.966 13.1833 20.7993 11.5C19.966 9.81667 18.7618 8.47917 17.1868 7.4875C15.6118 6.49583 13.8826 6 11.9993 6C10.116 6 8.38682 6.49583 6.81182 7.4875C5.23682 8.47917 4.03265 9.81667 3.19932 11.5C4.03265 13.1833 5.23682 14.5208 6.81182 15.5125C8.38682 16.5042 10.116 17 11.9993 17Z" fill="#A8A8A8"/>
</g>
</svg>
