<svg width="22" height="20" viewBox="0 0 24 24" fill="none" xmlns="http://www.w3.org/2000/svg">
<path d="M12.0992 16.3C10.0276 16.3 8.1255 15.7546 6.393 14.6638 4.6605 13.5729 3.3359 12.1016 2.4193 10.25 3.3359 8.3983 4.6605 6.9271 6.393 5.8362S10.0276 4.2 12.0992 4.2 16.073 4.7454 17.8055 5.8362 20.8626 8.3983 21.7792 10.25C20.8626 12.1016 19.538 13.5729 17.8055 14.6638 16.073 15.7546 14.1709 16.3 12.0992 16.3ZM12.0992 18.5C14.6476 18.5 16.976 17.8263 19.0842 16.4788 21.1926 15.1313 22.7876 13.3116 23.8692 11.02 23.9242 10.9284 23.9609 10.8138 23.9792 10.6762S24.0067 10.3966 24.0067 10.25 23.9976 9.9613 23.9792 9.8238 23.9242 9.5716 23.8692 9.48C22.7876 7.1883 21.1926 5.3688 19.0842 4.0213 16.976 2.6738 14.6476 2 12.0992 2 9.5509 2 7.2226 2.6738 5.1143 4.0213 3.0059 5.3688 1.4109 7.1883.3293 9.48.2743 9.5716.2376 9.6863.2193 9.8238.2009 9.9613.1918 10.1034.1918 10.25S.2009 10.5388.2193 10.6762C.2376 10.8138.2743 10.9284.3293 11.02 1.4109 13.3116 3.0059 15.1313 5.1143 16.4788 7.2226 17.8263 9.5509 18.5 12.0992 18.5ZM12.0992 13.22C12.9242 13.22 13.6255 12.9313 14.203 12.3537S15.0692 11.075 15.0692 10.25 14.7805 8.7238 14.203 8.1463 12.9242 7.28 12.0992 7.28 10.573 7.5688 9.9955 8.1463C9.418 8.7238 9.1293 9.425 9.1293 10.25S9.418 11.7762 9.9955 12.3537C10.573 12.9313 11.2742 13.22 12.0992 13.22ZM12.0992 15.2C10.7242 15.2 9.5555 14.7188 8.593 13.7563S7.1493 11.625 7.1493 10.25 7.6305 7.7063 8.593 6.7438 10.7242 5.3 12.0992 5.3 14.643 5.7813 15.6055 6.7438C16.568 7.7063 17.0492 8.875 17.0492 10.25S16.568 12.7938 15.6055 13.7563C14.643 14.7188 13.4742 15.2 12.0992 15.2Z" fill="#A8A8A8"/>
</svg>
