<svg width="22" height="20" viewBox="0 0 22 20" fill="none" xmlns="http://www.w3.org/2000/svg">
<path d="M15.0993 10.3001L13.6493 8.8501C13.7993 8.06676 13.5743 7.33343 12.9743 6.6501C12.3743 5.96676 11.5993 5.7001 10.6493 5.8501L9.19932 4.4001C9.48265 4.26676 9.77015 4.16676 10.0618 4.1001C10.3535 4.03343 10.666 4.0001 10.9993 4.0001C12.2493 4.0001 13.3118 4.4376 14.1868 5.3126C15.0618 6.1876 15.4993 7.2501 15.4993 8.5001C15.4993 8.83343 15.466 9.14593 15.3993 9.4376C15.3327 9.72927 15.2326 10.0168 15.0993 10.3001ZM18.2993 13.4501L16.8493 12.0501C17.4827 11.5668 18.0452 11.0376 18.5368 10.4626C19.0285 9.8876 19.4493 9.23343 19.7993 8.5001C18.966 6.81676 17.7701 5.47926 16.2118 4.4876C14.6535 3.49593 12.916 3.0001 10.9993 3.0001C10.516 3.0001 10.041 3.03343 9.57432 3.1001C9.10765 3.16676 8.64932 3.26676 8.19932 3.4001L6.64932 1.8501C7.33265 1.56676 8.03265 1.35426 8.74932 1.2126C9.46598 1.07093 10.216 1.0001 10.9993 1.0001C13.3826 1.0001 15.5243 1.62926 17.4243 2.8876C19.3243 4.14593 20.7493 5.78343 21.6993 7.8001C21.7493 7.88343 21.7826 7.9876 21.7993 8.1126C21.816 8.2376 21.8243 8.36677 21.8243 8.5001C21.8243 8.63343 21.8118 8.7626 21.7868 8.8876C21.7618 9.0126 21.7326 9.11677 21.6993 9.2001C21.316 10.0501 20.8368 10.8334 20.2618 11.5501C19.6868 12.2668 19.0326 12.9001 18.2993 13.4501ZM18.0993 18.9001L14.5993 15.4501C14.016 15.6334 13.4285 15.7709 12.8368 15.8626C12.2452 15.9543 11.6326 16.0001 10.9993 16.0001C8.61598 16.0001 6.47432 15.3709 4.57432 14.1126C2.67432 12.8543 1.24932 11.2168 0.299316 9.2001C0.249316 9.11677 0.215983 9.0126 0.199316 8.8876C0.18265 8.7626 0.174316 8.63343 0.174316 8.5001C0.174316 8.36677 0.18265 8.24176 0.199316 8.1251C0.215983 8.00843 0.249316 7.90843 0.299316 7.8251C0.649316 7.0751 1.06598 6.38343 1.54932 5.7501C2.03265 5.11676 2.56598 4.53343 3.14932 4.0001L1.07432 1.9001C0.890983 1.71676 0.799316 1.4876 0.799316 1.2126C0.799316 0.937598 0.899316 0.700098 1.09932 0.500098C1.28265 0.316764 1.51598 0.225098 1.79932 0.225098C2.08265 0.225098 2.31598 0.316764 2.49932 0.500098L19.4993 17.5001C19.6826 17.6834 19.7785 17.9126 19.7868 18.1876C19.7952 18.4626 19.6993 18.7001 19.4993 18.9001C19.316 19.0834 19.0826 19.1751 18.7993 19.1751C18.516 19.1751 18.2826 19.0834 18.0993 18.9001ZM4.54932 5.4001C4.06598 5.83343 3.62432 6.30843 3.22432 6.8251C2.82432 7.34176 2.48265 7.9001 2.19932 8.5001C3.03265 10.1834 4.22848 11.5209 5.78682 12.5126C7.34515 13.5043 9.08265 14.0001 10.9993 14.0001C11.3326 14.0001 11.6576 13.9793 11.9743 13.9376C12.291 13.8959 12.616 13.8501 12.9493 13.8001L12.0493 12.8501C11.866 12.9001 11.691 12.9376 11.5243 12.9626C11.3576 12.9876 11.1826 13.0001 10.9993 13.0001C9.74932 13.0001 8.68682 12.5626 7.81182 11.6876C6.93682 10.8126 6.49932 9.7501 6.49932 8.5001C6.49932 8.31676 6.51182 8.14176 6.53682 7.9751C6.56182 7.80843 6.59932 7.63343 6.64932 7.4501L4.54932 5.4001Z" fill="#A8A8A8"/>
</svg>
